<svg xmlns="http://www.w3.org/2000/svg" xmlns:xlink="http://www.w3.org/1999/xlink" version="1.1" x="0px" y="0px" viewBox="0 0 48 60" enable-background="new 0 0 48 48" xml:space="preserve"><path d="M31.724,29.938h-6.553c-4.068,0-7.379-3.311-7.379-7.379V5.304c0-1.988-1.617-3.607-3.607-3.607  c-1.988,0-3.607,1.619-3.607,3.607V22.56c0,2.224,0.52,4.451,1.502,6.447c0.461,0.936,0.705,1.981,0.705,3.027v13.77  c0,0.277,0.223,0.5,0.5,0.5h16.922v-8.701c0-0.277,0.226-0.5,0.5-0.5c0.276,0,0.5,0.223,0.5,0.5v2v6.201v0.5h5.715  c0.277,0,0.5-0.223,0.5-0.5V35.638C37.421,32.495,34.864,29.938,31.724,29.938z"/><path d="M25.171,15.709c-3.775,0-6.848,3.072-6.848,6.85c0,3.775,3.072,6.848,6.848,6.848c3.777,0,6.85-3.072,6.85-6.848  C32.021,18.783,28.948,15.709,25.171,15.709z"/></svg>