<svg data-v-423bf9ae="" xmlns="http://www.w3.org/2000/svg" viewBox="0 0 265 90" class="iconLeft"><!----><!----><!----><g data-v-423bf9ae="" id="f5455051-5585-45c2-bba3-daec40e42ed5" fill="black" transform="matrix(4.8979591836734695,0,0,4.8979591836734695,76.07121851675365,12.25714147455838)"><path d="M4.45 12.60L6.52 12.60L11.37 1.05L8.40 1.05L5.49 8.64L2.58 1.05L-0.39 1.05ZM10.32 9.02C10.32 11.23 12.05 12.81 14.64 12.81C17.12 12.81 18.93 11.23 18.93 9.02C18.93 6.78 17.02 5.21 14.64 5.21C12.22 5.21 10.32 6.78 10.32 9.02ZM12.95 9.02C12.95 8.02 13.69 7.32 14.63 7.32C15.55 7.32 16.30 8.02 16.30 9.02C16.30 10.00 15.60 10.70 14.63 10.70C13.62 10.70 12.95 10.00 12.95 9.02ZM20.06 12.60L22.54 12.60L22.54 0.56L20.06 0.56ZM23.70 9.02C23.70 11.12 25.17 12.81 27.27 12.81C28.25 12.81 29.09 12.38 29.62 11.79L29.65 11.79L29.65 12.60L32.10 12.60L32.10 5.42L29.62 5.42L29.62 6.10C29.04 5.53 28.24 5.21 27.27 5.21C25.17 5.21 23.70 6.92 23.70 9.02ZM26.33 9.02C26.33 8.02 27.08 7.32 28.01 7.32C28.94 7.32 29.68 8.02 29.68 9.02C29.68 10.00 28.98 10.70 28.01 10.70C27.01 10.70 26.33 10.00 26.33 9.02ZM34.10 5.42L33.07 5.42L33.07 7.31L34.10 7.31L34.10 10.07C34.10 11.34 34.58 12.81 36.55 12.81C37.58 12.81 38.37 12.36 38.37 12.36L37.76 10.36C37.76 10.36 37.46 10.58 37.14 10.58C36.75 10.58 36.58 10.26 36.58 9.59L36.58 7.31L38.09 7.31L38.09 5.42L36.58 5.42L36.58 2.74L34.10 2.74Z"></path></g><!----><g data-v-423bf9ae="" id="e65a0142-e719-4f99-b39e-a732092f7e19" transform="matrix(2.017620450682766,0,0,2.017620450682766,-20.84489170139615,-2.7269016893624283)" stroke="none" fill="black"><path d="M31.724 29.938h-6.553c-4.068 0-7.379-3.311-7.379-7.379V5.304a3.611 3.611 0 0 0-3.607-3.607 3.612 3.612 0 0 0-3.607 3.607V22.56c0 2.224.52 4.451 1.502 6.447.461.936.705 1.981.705 3.027v13.77c0 .277.223.5.5.5h16.922v-8.701a.5.5 0 0 1 1 0v8.701h5.715c.277 0 .5-.223.5-.5V35.638a5.707 5.707 0 0 0-5.698-5.7z"></path><path d="M25.171 15.709c-3.775 0-6.848 3.072-6.848 6.85a6.856 6.856 0 0 0 6.848 6.848c3.777 0 6.85-3.072 6.85-6.848a6.859 6.859 0 0 0-6.85-6.85z"></path></g><!----></svg>